<svg id="visual" viewBox="0 0 900 600" width="900" height="600" xmlns="http://www.w3.org/2000/svg" xmlns:xlink="http://www.w3.org/1999/xlink" version="1.1"><rect x="0" y="0" width="900" height="600" fill="#001220"></rect><path d="M0 366L21.5 371.3C43 376.7 86 387.3 128.8 385C171.7 382.7 214.3 367.3 257.2 373.7C300 380 343 408 385.8 414.7C428.7 421.3 471.3 406.7 514.2 396.5C557 386.3 600 380.7 642.8 381C685.7 381.3 728.3 387.7 771.2 390.3C814 393 857 392 878.5 391.5L900 391L900 601L878.5 601C857 601 814 601 771.2 601C728.3 601 685.7 601 642.8 601C600 601 557 601 514.2 601C471.3 601 428.7 601 385.8 601C343 601 300 601 257.2 601C214.3 601 171.7 601 128.8 601C86 601 43 601 21.5 601L0 601Z" fill="#4facf7"></path><path d="M0 437L21.5 438.7C43 440.3 86 443.7 128.8 443.5C171.7 443.3 214.3 439.7 257.2 443.7C300 447.7 343 459.3 385.8 453.5C428.7 447.7 471.3 424.3 514.2 415.7C557 407 600 413 642.8 417.3C685.7 421.7 728.3 424.3 771.2 434C814 443.7 857 460.3 878.5 468.7L900 477L900 601L878.5 601C857 601 814 601 771.2 601C728.3 601 685.7 601 642.8 601C600 601 557 601 514.2 601C471.3 601 428.7 601 385.8 601C343 601 300 601 257.2 601C214.3 601 171.7 601 128.8 601C86 601 43 601 21.5 601L0 601Z" fill="#2b9dfc"></path><path d="M0 447L21.5 453C43 459 86 471 128.8 477.8C171.7 484.7 214.3 486.3 257.2 486C300 485.7 343 483.3 385.8 478.5C428.7 473.7 471.3 466.3 514.2 465.2C557 464 600 469 642.8 472.5C685.7 476 728.3 478 771.2 482C814 486 857 492 878.5 495L900 498L900 601L878.5 601C857 601 814 601 771.2 601C728.3 601 685.7 601 642.8 601C600 601 557 601 514.2 601C471.3 601 428.7 601 385.8 601C343 601 300 601 257.2 601C214.3 601 171.7 601 128.8 601C86 601 43 601 21.5 601L0 601Z" fill="#008cff"></path><path d="M0 528L21.5 527.7C43 527.3 86 526.7 128.8 524.5C171.7 522.3 214.3 518.7 257.2 513.7C300 508.7 343 502.3 385.8 499.5C428.7 496.7 471.3 497.3 514.2 496.7C557 496 600 494 642.8 492.2C685.7 490.3 728.3 488.7 771.2 487.7C814 486.7 857 486.3 878.5 486.2L900 486L900 601L878.5 601C857 601 814 601 771.2 601C728.3 601 685.7 601 642.8 601C600 601 557 601 514.2 601C471.3 601 428.7 601 385.8 601C343 601 300 601 257.2 601C214.3 601 171.7 601 128.8 601C86 601 43 601 21.5 601L0 601Z" fill="#007aff"></path><path d="M0 568L21.5 568.2C43 568.3 86 568.7 128.8 567.5C171.7 566.3 214.3 563.7 257.2 557.5C300 551.3 343 541.7 385.8 538.8C428.7 536 471.3 540 514.2 542C557 544 600 544 642.8 546.3C685.7 548.7 728.3 553.3 771.2 554.5C814 555.7 857 553.3 878.5 552.2L900 551L900 601L878.5 601C857 601 814 601 771.2 601C728.3 601 685.7 601 642.8 601C600 601 557 601 514.2 601C471.3 601 428.7 601 385.8 601C343 601 300 601 257.2 601C214.3 601 171.7 601 128.8 601C86 601 43 601 21.5 601L0 601Z" fill="#0066ff"></path></svg>