<?xml version="1.0" encoding="UTF-8" standalone="no"?>
<svg
   width="1920"
   height="590"
   id="svg"
   viewBox="0 0 1920 590"
   class="transition duration-300 ease-in-out delay-150"
   version="1.1"
   sodipodi:docname="waves.svg"
   inkscape:version="1.3.2 (091e20e, 2023-11-25, custom)"
   xmlns:inkscape="http://www.inkscape.org/namespaces/inkscape"
   xmlns:sodipodi="http://sodipodi.sourceforge.net/DTD/sodipodi-0.dtd"
   xmlns="http://www.w3.org/2000/svg"
   xmlns:svg="http://www.w3.org/2000/svg">
  <defs
     id="defs3" />
  <sodipodi:namedview
     id="namedview3"
     pagecolor="#ffffff"
     bordercolor="#000000"
     borderopacity="0.25"
     inkscape:showpageshadow="2"
     inkscape:pageopacity="0.0"
     inkscape:pagecheckerboard="0"
     inkscape:deskcolor="#d1d1d1"
     inkscape:zoom="0.91597224"
     inkscape:cx="1565.5496"
     inkscape:cy="411.03866"
     inkscape:window-width="1920"
     inkscape:window-height="1009"
     inkscape:window-x="1912"
     inkscape:window-y="-8"
     inkscape:window-maximized="1"
     inkscape:current-layer="svg" />
  <path
     d="M -25.671869,603.08789 V 470.78196 c 14.488061,1.00454 28.9761219,2.00908 46.126966,5.15125 17.150852,3.14218 36.96449,8.42199 55.623711,9.48917 18.65923,1.06716 36.164022,-2.07833 50.197002,-4.88014 14.03297,-2.80182 24.59412,-5.25998 41.3786,-7.32021 16.78448,-2.06023 39.79228,-3.72253 57.65871,-0.81335 17.86644,2.90917 30.5915,10.3898 46.80531,6.50684 16.21383,-3.88296 35.9164,-19.12953 52.23202,-16.80936 16.3156,2.32017 29.24424,22.20708 44.77029,22.23173 15.52605,0.0247 33.64952,-19.81294 47.48365,-23.85845 13.83413,-4.04549 23.37891,7.70109 40.02192,13.55595 16.64302,5.85484 40.38426,5.81796 59.69373,8.67579 19.30948,2.85783 34.18719,8.61039 50.197,2.98231 16.00981,-5.62807 33.15172,-22.63678 48.84032,-22.50285 15.68859,0.13393 29.92395,17.4105 45.44868,19.52054 15.52473,2.11006 32.33875,-10.94642 50.8753,-16.53823 18.53664,-5.59183 38.79582,-3.71899 52.91034,2.16894 14.11453,5.88793 22.08449,15.79099 36.63024,16.26712 14.54582,0.47615 35.66761,-8.47461 55.62369,-10.3025 19.95616,-1.82791 38.74646,3.46705 54.26706,4.06677 15.52059,0.59972 27.77124,-3.49579 40.02197,-7.59132 v 132.30593 z"
     stroke="none"
     stroke-width="0"
     fill="#0693e3"
     fill-opacity="0.4"
     class="transition-all duration-300 ease-in-out delay-150 path-0"
     id="path1" />
  <path
     d="m -25.671869,603.08789 v -91.63813 c 17.3588049,2.70739 34.7176009,5.41477 48.840319,3.52455 14.122718,-1.89022 25.009356,-8.37805 42.056947,-10.3025 17.047601,-1.92447 40.256153,0.71443 57.658723,3.25342 17.40257,2.53898 28.99918,4.97805 44.77029,4.06678 15.77112,-0.91128 35.71674,-5.1729 53.58869,-2.16896 17.87195,3.00396 33.67022,13.27347 48.16198,15.18264 14.49176,1.90917 27.67699,-4.54199 45.44863,-11.6581 17.77166,-7.11608 40.12971,-14.89711 56.30205,-13.28481 16.17232,1.6123 26.15891,12.61792 42.05693,15.45377 15.89803,2.83584 37.70749,-2.49807 56.98038,-1.62672 19.27289,0.87136 36.00922,7.94801 50.197,6.23574 14.18778,-1.71228 25.827,-12.21346 41.37861,-13.82706 15.55159,-1.61359 35.01556,5.66039 53.58868,5.42238 18.57311,-0.238 36.2554,-7.98801 50.87539,-11.38699 14.61989,-3.39899 26.17748,-2.44697 41.37861,-3.25342 15.20104,-0.80647 34.04564,-3.37142 52.91034,3.25342 18.86469,6.62484 37.74965,22.43945 52.23203,20.87614 14.48237,-1.5633 24.56232,-20.50452 36.63022,-23.58733 12.0679,-3.0828 26.12383,9.69284 43.41356,14.64042 17.28982,4.94757 37.81343,2.06712 58.33713,-0.81337 v 91.63813 z"
     stroke="none"
     stroke-width="0"
     fill="#0693e3"
     fill-opacity="0.53"
     class="transition-all duration-300 ease-in-out delay-150 path-1"
     id="path2" />
  <path
     d="m -25.671869,603.08789 v -50.97032 c 16.0042599,7.39541 32.0085199,14.79081 49.518661,13.28483 17.510134,-1.50599 36.526152,-11.91336 53.588696,-17.35161 17.06253,-5.43823 32.171602,-5.90733 46.126972,-7.86244 13.95536,-1.9551 26.75704,-5.3962 41.3786,0 14.62157,5.39622 31.06303,19.62975 50.87534,22.23173 19.8123,2.60199 42.99545,-6.42754 57.65871,-7.59132 14.66326,-1.16377 20.8066,5.53821 35.9519,9.48916 15.1453,3.95095 39.29255,5.15085 58.33705,1.08448 19.04451,-4.06638 32.98628,-13.39904 46.80531,-14.91153 13.81904,-1.5125 27.51535,4.79516 43.41362,5.42237 15.89827,0.6272 33.9985,-4.42605 49.51866,-2.9823 15.52016,1.44373 28.46025,9.38448 44.09196,7.04908 15.6317,-2.33539 33.95501,-14.94693 49.51867,-13.55593 15.56363,1.391 28.36763,16.78454 48.16195,17.89383 19.7944,1.10928 46.57913,-12.06566 63.08543,-16.53825 16.50639,-4.47258 22.73435,-0.24279 36.63031,-0.54223 13.89587,-0.29943 35.45966,-5.12811 52.23195,-7.32021 16.77236,-2.1921 28.75322,-1.74764 44.77036,-1.35558 16.01705,0.39205 36.07055,0.73171 54.26697,2.98229 18.19643,2.25059 34.53587,6.41212 50.87539,10.57363 v 50.97032 z"
     stroke="none"
     stroke-width="0"
     fill="#0693e3"
     fill-opacity="1"
     class="transition-all duration-300 ease-in-out delay-150 path-2"
     id="path3" />
  <path
     d="m 951.01888,601.56814 v -130.6378 c 15.34529,0.99187 30.69052,1.98373 48.85603,5.08631 18.16559,3.10254 39.15149,8.31579 58.91459,9.36951 19.7633,1.0537 38.3036,-2.05211 53.1669,-4.81862 14.8632,-2.7665 26.0493,-5.19364 43.8267,-7.2279 17.7776,-2.03426 42.1466,-3.6756 61.07,-0.80309 18.9236,2.87248 32.4015,10.25881 49.5746,6.42479 17.1731,-3.834 38.0414,-18.88835 55.3223,-16.59742 17.2808,2.29091 30.9744,21.92708 47.4191,21.95143 16.4446,0.0243 35.6403,-19.56313 50.2929,-23.55764 14.6526,-3.9945 24.7621,7.604 42.3898,13.38502 17.6276,5.78104 42.7735,5.74462 63.2255,8.56642 20.4519,2.8218 36.2099,8.50183 53.1668,2.94471 16.957,-5.55712 35.1131,-22.35138 51.73,-22.21915 16.6168,0.13225 31.6943,17.191 48.1375,19.27444 16.4432,2.08345 34.252,-10.80841 53.8853,-16.32972 19.6333,-5.52132 41.0912,-3.6721 56.0408,2.14159 14.9495,5.81371 23.391,15.59189 38.7973,16.06204 15.4064,0.47014 37.778,-8.36777 58.9147,-10.17262 21.1368,-1.80485 41.0389,3.42335 57.4776,4.0155 16.4389,0.59216 29.4144,-3.45173 42.3899,-7.4956 v 130.6378 z"
     stroke="none"
     stroke-width="0"
     fill="#0693e3"
     fill-opacity="0.4"
     class="transition-all duration-300 ease-in-out delay-150 path-0"
     id="path1-0" />
  <path
     d="m 951.16608,601.79306 v -90.48274 c 18.38588,2.67324 36.77173,5.3465 51.73002,3.48011 14.9582,-1.8664 26.4889,-8.27242 44.5451,-10.17262 18.0562,-1.9002 42.638,0.70543 61.0701,3.2124 18.4322,2.50698 30.7149,4.91529 47.419,4.01551 16.7043,-0.89979 37.8299,-5.10768 56.7593,-2.1416 18.9294,2.96608 35.6622,13.10611 51.0114,14.99122 15.3491,1.88511 29.3145,-4.48474 48.1376,-11.51111 18.8231,-7.02639 42.504,-14.70931 59.6331,-13.11733 17.129,1.59197 27.7066,12.45884 44.5452,15.25892 16.8386,2.80009 39.9384,-2.46656 60.3515,-1.60619 20.4131,0.86037 38.1397,7.84779 53.1668,6.1571 15.0272,-1.69067 27.3552,-12.05946 43.8267,-13.65272 16.4718,-1.59325 37.0874,5.58901 56.7594,5.35401 19.6719,-0.23501 38.4004,-7.88729 53.8853,-11.24342 15.4849,-3.35612 27.7262,-2.41611 43.8267,-3.21241 16.1003,-0.79628 36.0599,-3.32889 56.0407,3.21241 19.9808,6.54131 39.9831,22.15653 55.3223,20.61294 15.3392,-1.5436 26.0155,-20.24602 38.7974,-23.28994 12.7819,-3.04394 27.6695,9.57062 45.9822,14.45582 18.3127,4.8852 40.0506,2.04104 61.7885,-0.8031 v 90.48274 z"
     stroke="none"
     stroke-width="0"
     fill="#0693e3"
     fill-opacity="0.53"
     class="transition-all duration-300 ease-in-out delay-150 path-1"
     id="path2-1" />
  <path
     d="m 949.9097,601.56814 v -50.32768 c 16.95113,7.30216 33.90224,14.60432 52.4483,13.11732 18.5462,-1.48701 38.6873,-11.76316 56.7592,-17.13283 18.0721,-5.36967 34.075,-5.83286 48.8561,-7.7633 14.7811,-1.93047 28.3401,-5.32819 43.8267,0 15.4867,5.32817 32.9008,19.38224 53.8853,21.95141 20.9846,2.56919 45.5393,-6.34649 61.07,-7.4956 15.5309,-1.1491 22.0376,5.46838 38.079,9.36951 16.0415,3.90114 41.6173,5.08591 61.7886,1.07081 20.1712,-4.01512 34.9379,-13.2301 49.5745,-14.72353 14.6365,-1.49342 29.1433,4.73471 45.9821,5.35402 16.8389,0.61929 36.01,-4.37025 52.4484,-2.94471 16.4384,1.42553 30.144,9.26616 46.7006,6.9602 16.5565,-2.30595 35.964,-14.75848 52.4484,-13.38501 16.4844,1.37346 30.0459,16.57292 51.0114,17.66822 20.9656,1.09531 49.335,-11.91352 66.8178,-16.32973 17.4829,-4.41619 24.0794,-0.23973 38.7974,-0.53539 14.7181,-0.29567 37.5578,-5.06345 55.3223,-7.22792 17.7646,-2.16446 30.4543,-1.72561 47.4191,-1.33849 16.9648,0.38711 38.2048,0.72249 57.4777,2.9447 19.273,2.22222 36.5791,6.33126 53.8853,10.44032 v 50.32768 z"
     stroke="none"
     stroke-width="0"
     fill="#0693e3"
     fill-opacity="1"
     class="transition-all duration-300 ease-in-out delay-150 path-2"
     id="path3-9" />
</svg>
