<?xml version="1.0" encoding="UTF-8" standalone="no"?>
<svg
   width="1920"
   height="590"
   id="svg"
   viewBox="0 0 1920 590"
   class="transition duration-300 ease-in-out delay-150"
   version="1.1"
   sodipodi:docname="waves.svg"
   inkscape:version="1.3.2 (091e20e, 2023-11-25, custom)"
   xmlns:inkscape="http://www.inkscape.org/namespaces/inkscape"
   xmlns:sodipodi="http://sodipodi.sourceforge.net/DTD/sodipodi-0.dtd"
   xmlns="http://www.w3.org/2000/svg"
   xmlns:svg="http://www.w3.org/2000/svg">
  <defs
     id="defs3" />
  <sodipodi:namedview
     id="namedview3"
     pagecolor="#ffffff"
     bordercolor="#000000"
     borderopacity="0.25"
     inkscape:showpageshadow="2"
     inkscape:pageopacity="0.0"
     inkscape:pagecheckerboard="0"
     inkscape:deskcolor="#d1d1d1"
     inkscape:zoom="0.32384509"
     inkscape:cx="1446.6793"
     inkscape:cy="683.96899"
     inkscape:window-width="1920"
     inkscape:window-height="1009"
     inkscape:window-x="1912"
     inkscape:window-y="-8"
     inkscape:window-maximized="1"
     inkscape:current-layer="svg" />
  <path
     d="M 4.8967433,603.08789 V 470.78196 c 14.4880607,1.00454 28.9761217,2.00908 46.1269657,5.15125 17.150852,3.14218 36.96449,8.42199 55.623711,9.48917 18.65923,1.06716 36.16402,-2.07833 50.197,-4.88014 14.03297,-2.80182 24.59412,-5.25998 41.3786,-7.32021 16.78448,-2.06023 39.79228,-3.72253 57.65871,-0.81335 17.86644,2.90917 30.5915,10.3898 46.80531,6.50684 16.21383,-3.88296 35.9164,-19.12953 52.23202,-16.80936 16.3156,2.32017 29.24424,22.20708 44.77029,22.23173 15.52605,0.0247 33.64952,-19.81294 47.48365,-23.85845 13.83413,-4.04549 23.37891,7.70109 40.02192,13.55595 16.64302,5.85484 40.38426,5.81796 59.69373,8.67579 19.30948,2.85783 34.18719,8.61039 50.197,2.98231 16.00981,-5.62807 33.15172,-22.63678 48.84032,-22.50285 15.68859,0.13393 29.92395,17.4105 45.44868,19.52054 15.52473,2.11006 32.33875,-10.94642 50.8753,-16.53823 18.53664,-5.59183 38.79582,-3.71899 52.91034,2.16894 14.11453,5.88793 22.08449,15.79099 36.63024,16.26712 14.54582,0.47615 35.66761,-8.47461 55.62369,-10.3025 19.95616,-1.82791 38.74646,3.46705 54.26706,4.06677 15.52059,0.59972 27.77124,-3.49579 40.02197,-7.59132 v 132.30593 z"
     stroke="none"
     stroke-width="0"
     fill="#0693e3"
     fill-opacity="0.4"
     class="transition-all duration-300 ease-in-out delay-150 path-0"
     id="path1" />
  <path
     d="m 4.8967433,603.08789 v -91.63813 c 17.3588047,2.70739 34.7176007,5.41477 48.8403187,3.52455 14.122718,-1.89022 25.009356,-8.37805 42.056947,-10.3025 17.047601,-1.92447 40.256151,0.71443 57.658721,3.25342 17.40257,2.53898 28.99918,4.97805 44.77029,4.06678 15.77112,-0.91128 35.71674,-5.1729 53.58869,-2.16896 17.87195,3.00396 33.67022,13.27347 48.16198,15.18264 14.49176,1.90917 27.67699,-4.54199 45.44863,-11.6581 17.77166,-7.11608 40.12971,-14.89711 56.30205,-13.28481 16.17232,1.6123 26.15891,12.61792 42.05693,15.45377 15.89803,2.83584 37.70749,-2.49807 56.98038,-1.62672 19.27289,0.87136 36.00922,7.94801 50.197,6.23574 14.18778,-1.71228 25.827,-12.21346 41.37861,-13.82706 15.55159,-1.61359 35.01556,5.66039 53.58868,5.42238 18.57311,-0.238 36.2554,-7.98801 50.87539,-11.38699 14.61989,-3.39899 26.17748,-2.44697 41.37861,-3.25342 15.20104,-0.80647 34.04564,-3.37142 52.91034,3.25342 18.86469,6.62484 37.74965,22.43945 52.23203,20.87614 14.48237,-1.5633 24.56232,-20.50452 36.63022,-23.58733 12.0679,-3.0828 26.12383,9.69284 43.41356,14.64042 17.28982,4.94757 37.81343,2.06712 58.33713,-0.81337 v 91.63813 z"
     stroke="none"
     stroke-width="0"
     fill="#0693e3"
     fill-opacity="0.53"
     class="transition-all duration-300 ease-in-out delay-150 path-1"
     id="path2" />
  <path
     d="m 4.8967433,603.08789 v -50.97032 c 16.0042597,7.39541 32.0085197,14.79081 49.5186607,13.28483 17.510134,-1.50599 36.526152,-11.91336 53.588696,-17.35161 17.06253,-5.43823 32.1716,-5.90733 46.12697,-7.86244 13.95536,-1.9551 26.75704,-5.3962 41.3786,0 14.62157,5.39622 31.06303,19.62975 50.87534,22.23173 19.8123,2.60199 42.99545,-6.42754 57.65871,-7.59132 14.66326,-1.16377 20.8066,5.53821 35.9519,9.48916 15.1453,3.95095 39.29255,5.15085 58.33705,1.08448 19.04451,-4.06638 32.98628,-13.39904 46.80531,-14.91153 13.81904,-1.5125 27.51535,4.79516 43.41362,5.42237 15.89827,0.6272 33.9985,-4.42605 49.51866,-2.9823 15.52016,1.44373 28.46025,9.38448 44.09196,7.04908 15.6317,-2.33539 33.95501,-14.94693 49.51867,-13.55593 15.56363,1.391 28.36763,16.78454 48.16195,17.89383 19.7944,1.10928 46.57913,-12.06566 63.08543,-16.53825 16.50639,-4.47258 22.73435,-0.24279 36.63031,-0.54223 13.89587,-0.29943 35.45966,-5.12811 52.23195,-7.32021 16.77236,-2.1921 28.75322,-1.74764 44.77036,-1.35558 16.01705,0.39205 36.07055,0.73171 54.26697,2.98229 18.19643,2.25059 34.53587,6.41212 50.87539,10.57363 v 50.97032 z"
     stroke="none"
     stroke-width="0"
     fill="#0693e3"
     fill-opacity="1"
     class="transition-all duration-300 ease-in-out delay-150 path-2"
     id="path3" />
  <path
     d="m 981.52553,601.56814 v -130.6378 c 14.48812,0.99187 28.97617,1.98373 46.12697,5.08631 17.1509,3.10254 36.9645,8.31579 55.6237,9.36951 18.6593,1.0537 36.164,-2.05211 50.197,-4.81862 14.033,-2.7665 24.5942,-5.19364 41.3786,-7.2279 16.7845,-2.03426 39.7923,-3.6756 57.6587,-0.80309 17.8665,2.87248 30.5915,10.25881 46.8054,6.42479 16.2138,-3.834 35.9164,-18.88835 52.232,-16.59742 16.3155,2.29091 29.2442,21.92708 44.7703,21.95143 15.526,0.0243 33.6495,-19.56313 47.4836,-23.55764 13.8341,-3.9945 23.3789,7.604 40.0219,13.38502 16.643,5.78104 40.3842,5.74462 59.6938,8.56642 19.3095,2.8218 34.1872,8.50183 50.1969,2.94471 16.0098,-5.55712 33.1518,-22.35138 48.8404,-22.21915 15.6886,0.13225 29.9239,17.191 45.4486,19.27444 15.5247,2.08345 32.3387,-10.80841 50.8753,-16.32972 18.5366,-5.52132 38.7959,-3.6721 52.9104,2.14159 14.1145,5.81371 22.0844,15.59189 36.6302,16.06204 14.5458,0.47014 35.6677,-8.36777 55.6237,-10.17262 19.9561,-1.80485 38.7465,3.42335 54.267,4.0155 15.5206,0.59216 27.7713,-3.45173 40.022,-7.4956 v 130.6378 z"
     stroke="none"
     stroke-width="0"
     fill="#0693e3"
     fill-opacity="0.4"
     class="transition-all duration-300 ease-in-out delay-150 path-0"
     id="path1-0" />
  <path
     d="m 981.66451,601.79306 v -90.48274 c 17.35886,2.67324 34.71769,5.3465 48.84039,3.48011 14.1227,-1.8664 25.0093,-8.27242 42.0569,-10.17262 17.0476,-1.9002 40.2562,0.70543 57.6587,3.2124 17.4026,2.50698 28.9992,4.91529 44.7703,4.01551 15.7712,-0.89979 35.7167,-5.10768 53.5887,-2.1416 17.872,2.96608 33.6702,13.10611 48.162,14.99122 14.4917,1.88511 27.677,-4.48474 45.4486,-11.51111 17.7717,-7.02639 40.1298,-14.70931 56.3021,-13.11733 16.1722,1.59197 26.1589,12.45884 42.0569,15.25892 15.898,2.80009 37.7075,-2.46656 56.9803,-1.60619 19.2729,0.86037 36.0093,7.84779 50.197,6.1571 14.1878,-1.69067 25.8271,-12.05946 41.3786,-13.65272 15.5517,-1.59325 35.0157,5.58901 53.5888,5.35401 18.5731,-0.23501 36.2554,-7.88729 50.8753,-11.24342 14.62,-3.35612 26.1775,-2.41611 41.3786,-3.21241 15.201,-0.79628 34.0456,-3.32889 52.9103,3.21241 18.8647,6.54131 37.7497,22.15653 52.2321,20.61294 14.4823,-1.5436 24.5623,-20.24602 36.6302,-23.28994 12.0679,-3.04394 26.1239,9.57062 43.4136,14.45582 17.2898,4.8852 37.8134,2.04104 58.3371,-0.8031 v 90.48274 z"
     stroke="none"
     stroke-width="0"
     fill="#0693e3"
     fill-opacity="0.53"
     class="transition-all duration-300 ease-in-out delay-150 path-1"
     id="path2-1" />
  <path
     d="m 980.47831,601.56814 v -50.32768 c 16.00425,7.30216 32.00849,14.60432 49.51859,13.11732 17.5102,-1.48701 36.5262,-11.76316 53.5887,-17.13283 17.0626,-5.36967 32.1716,-5.83286 46.127,-7.7633 13.9554,-1.93047 26.757,-5.32819 41.3786,0 14.6216,5.32817 31.063,19.38224 50.8753,21.95141 19.8124,2.56919 42.9955,-6.34649 57.6587,-7.4956 14.6633,-1.1491 20.8066,5.46838 35.9519,9.36951 15.1454,3.90114 39.2926,5.08591 58.3371,1.07081 19.0445,-4.01512 32.9863,-13.2301 46.8053,-14.72353 13.819,-1.49342 27.5154,4.73471 43.4136,5.35402 15.8983,0.61929 33.9985,-4.37025 49.5187,-2.94471 15.5202,1.42553 28.4602,9.26616 44.0919,6.9602 15.6317,-2.30595 33.9551,-14.75848 49.5187,-13.38501 15.5636,1.37346 28.3676,16.57292 48.162,17.66822 19.7944,1.09531 46.5791,-11.91352 63.0854,-16.32973 16.5063,-4.41619 22.7343,-0.23973 36.6302,-0.53539 13.8959,-0.29567 35.4598,-5.06345 52.232,-7.22792 16.7723,-2.16446 28.7532,-1.72561 44.7703,-1.33849 16.0172,0.38711 36.0707,0.72249 54.2671,2.9447 18.1964,2.22222 34.5358,6.33126 50.8753,10.44032 v 50.32768 z"
     stroke="none"
     stroke-width="0"
     fill="#0693e3"
     fill-opacity="1"
     class="transition-all duration-300 ease-in-out delay-150 path-2"
     id="path3-9" />
</svg>
