<?xml version="1.0" encoding="UTF-8" standalone="no"?>
<svg
   id="visual"
   viewBox="0 0 900 90"
   width="900"
   height="90"
   version="1.1"
   sodipodi:docname="layered-waves-haikei.svg"
   inkscape:version="1.3.2 (091e20e, 2023-11-25, custom)"
   xmlns:inkscape="http://www.inkscape.org/namespaces/inkscape"
   xmlns:sodipodi="http://sodipodi.sourceforge.net/DTD/sodipodi-0.dtd"
   xmlns="http://www.w3.org/2000/svg"
   xmlns:svg="http://www.w3.org/2000/svg">
  <defs
     id="defs5" />
  <sodipodi:namedview
     id="namedview5"
     pagecolor="#ffffff"
     bordercolor="#000000"
     borderopacity="0.25"
     inkscape:showpageshadow="2"
     inkscape:pageopacity="0.0"
     inkscape:pagecheckerboard="0"
     inkscape:deskcolor="#d1d1d1"
     inkscape:zoom="0.69416668"
     inkscape:cx="774.30971"
     inkscape:cy="-69.867946"
     inkscape:window-width="1920"
     inkscape:window-height="1009"
     inkscape:window-x="1912"
     inkscape:window-y="-8"
     inkscape:window-maximized="1"
     inkscape:current-layer="visual" />
  <path
     d="m -16.752694,35.778524 17.52342421,-2.2025 C 12.820214,31.624366 36.919204,27.65135 60.906095,27.024029 84.94904,26.396713 108.82385,29.04539 132.86679,26.396713 c 23.98689,-2.683532 48.08588,-10.699267 72.07278,-11.570543 24.04294,-0.871275 47.91774,5.40191 71.96068,6.691398 23.98689,1.254636 48.08589,-2.439573 72.07279,-4.495782 24.04295,-2.021362 47.91774,-2.369869 71.96068,-0.627318 23.98689,1.74255 48.08588,5.576163 60.13538,7.492971 l 12.0495,1.916803 v 64.82292 H 481.0691 420.93372 348.97304 276.90025 204.93957 132.86679 60.906095 0.77073021 -11.278764 Z"
     fill="#9cd2ff"
     id="path1"
     style="stroke-width:0.441952"
     sodipodi:nodetypes="ccccccccscccccccccccc" />
  <path
     d="m -14.719343,48.108902 12.0494936,-0.97583 c 12.049495,-1.01068 36.1484734,-2.96234 60.1353754,-5.715567 24.042936,-2.718382 47.917734,-6.203482 71.960694,-7.353567 23.9869,-1.184933 48.08587,0 72.07276,2.439573 24.04295,2.439572 47.91775,6.133781 71.96069,8.015741 23.98689,1.8471 48.0859,1.8471 72.07279,2.12591 24.04294,0.31366 47.91774,0.87128 71.96069,-1.67285 23.9869,-2.54412 48.08588,-8.259691 60.13538,-11.082627 l 13.48305,-2.857786 -1.43357,59.595263 H 477.62853 417.49315 345.53246 273.45967 201.49898 129.42622 57.465526 -2.6698494 -14.719343 Z"
     fill="#71b5f7"
     id="path2"
     style="stroke-width:0.441952"
     sodipodi:nodetypes="ccccccccccccccccccccc" />
  <path
     d="m -16.152917,46.378892 11.6525571,0.21844 c 10.4136032,0.18723 31.2408189,0.62412 51.9711499,1.0922 20.778779,0.46809 41.412245,0.96738 62.19104,2.83972 20.73033,1.87235 41.55754,5.11775 62.28788,6.83406 20.77878,1.71633 41.41224,1.90356 62.19102,2.18441 20.73033,0.24964 41.55756,0.5617 62.28791,-1.77873 20.77877,-2.34043 41.41223,-7.33336 62.19101,-9.61137 20.73036,-2.30923 41.55756,-1.87235 51.97116,-1.68511 l 13.88267,-0.73884 -3.46905,44.95738 H 410.59081 358.61965 296.42864 234.14073 171.94971 109.66183 47.47079 -4.5003599 l -11.4047661,0.54701 z"
     fill="#4897ee"
     id="path3"
     style="stroke-width:0.388777"
     sodipodi:nodetypes="ccccccccccccccccccccc" />
  <path
     d="m -15.641377,70.513432 13.3397072,-0.19067 c 12.049495,-0.83642 36.1484838,-2.43957 60.1353758,-3.83361 24.042946,-1.39404 47.917744,-2.57898 71.960684,-3.31084 23.9869,-0.76673 48.08589,-1.11523 72.07278,0.17425 24.04294,1.25464 47.91774,4.18212 71.96068,5.92468 23.98688,1.74255 48.0859,2.30016 72.07279,0.62732 24.04295,-1.67286 47.91774,-5.64587 71.96068,-8.78247 23.98691,-3.13658 48.08589,-5.43676 60.13538,-6.62168 l 15.77678,-1.15009 -3.72728,39.73017 H 477.9967 417.86132 345.90064 273.82785 201.86717 129.79439 57.833706 -2.3016698 l -13.4830572,0.15273 z"
     fill="#2278e2"
     id="path4"
     style="stroke-width:0.441952"
     sodipodi:nodetypes="ccccccccccccccccccccc" />
  <path
     d="m -16.296277,82.037842 13.6264276,-0.35363 c 12.049495,0.1394 36.1484734,0.34851 60.1353754,-2.12592 24.042936,-2.50927 47.917734,-7.73692 71.960694,-8.01573 23.9869,-0.31366 48.08587,4.35637 72.07276,5.15795 24.04295,0.80157 47.91775,-2.19561 71.96069,-2.19561 23.98689,0 48.0859,2.99718 72.07279,4.46093 24.04294,1.46373 47.91774,1.32434 71.96069,0.76672 23.9869,-0.59247 48.08588,-1.638 60.13538,-2.16076 l 15.92014,-0.52277 -0.57344,16.1842 -15.3467,-0.15272 H 417.49315 345.53246 273.45967 201.49898 129.42622 57.465526 -2.6698494 -16.296277 Z"
     fill="#0658d2"
     id="path5"
     style="stroke-width:0.441952"
     sodipodi:nodetypes="cccccsccscccccccccccc" />
  <path
     d="m 397.19272,34.735127 17.49658,-2.325582 c 12.03103,-2.060721 36.0931,-6.255758 60.04326,-6.918135 24.00611,-0.662372 47.84434,2.134319 71.85046,-0.662372 23.95014,-2.833493 48.01221,-11.297167 71.96236,-12.21713 24.00609,-0.919965 47.84433,5.70378 71.85043,7.065328 23.95018,1.324747 48.0123,-2.575902 71.96239,-4.747017 24.00609,-2.13432 47.84433,-2.502303 71.85042,-0.662374 23.95019,1.839927 48.01231,5.887771 60.04333,7.911695 l 12.03101,2.023919 V 92.648822 H 894.25195 834.20862 762.3582 690.39581 618.54538 546.58302 474.73256 414.6893 402.65827 Z"
     fill="#9cd2ff"
     id="path1-9"
     style="stroke-width:0.453785"
     sodipodi:nodetypes="ccccccccscccccccccccc" />
  <path
     d="m 398.44504,50.130572 12.04949,-0.97583 c 12.0495,-1.01067 36.14848,-2.96233 60.13538,-5.71557 24.04293,-2.718379 47.91774,-6.20348 71.96069,-7.353564 23.9869,-1.184933 48.08587,0 72.07276,2.439573 24.04295,2.439571 47.91779,6.133781 71.96069,8.015731 23.98688,1.84711 48.08591,1.84711 72.07279,2.12592 24.0429,0.31366 47.91774,0.87128 71.96065,-1.67285 23.98698,-2.54412 48.0859,-8.259692 60.13542,-11.082628 l 13.48302,-2.857785 -1.43351,59.595253 H 890.79291 830.65749 758.69684 686.62405 614.66336 542.5906 470.62991 410.49453 398.44504 Z"
     fill="#71b5f7"
     id="path2-1"
     style="stroke-width:0.441952"
     sodipodi:nodetypes="ccccccccccccccccccccc" />
  <path
     d="m 396.49077,46.200672 13.49684,0.22915 c 12.0618,0.19642 36.1854,0.65473 60.19679,1.14577 24.06749,0.49104 47.96668,1.01482 72.03418,2.97898 24.01139,1.96417 48.135,5.36872 72.14638,7.1692 24.06746,1.80048 47.96674,1.9969 72.03417,2.29152 24.01143,0.26189 48.13499,0.58926 72.14641,-1.86595 24.06754,-2.4552 47.96671,-7.69298 72.03414,-10.08271 24.01143,-2.42247 48.13499,-1.96416 60.19677,-1.76774 l 16.07992,-0.77508 -4.01803,47.16208 H 890.77645 830.57968 758.54554 686.39913 614.36496 542.21858 470.1844 409.98761 l -13.20981,0.57384 z"
     fill="#4897ee"
     id="path3-6"
     style="stroke-width:0.428551"
     sodipodi:nodetypes="ccccccccccccccccccccc" />
  <path
     d="m 396.32664,64.103252 13.3614,-0.24085 c 12.06909,-1.05651 36.20723,-3.08151 60.23314,-4.84239 24.08203,-1.76087 47.99564,-3.25761 72.07768,-4.18205 24.02589,-0.96849 48.16405,-1.4087 72.18994,0.2201 24.082,1.58479 47.99568,5.28261 72.07764,7.4837 24.02593,2.20109 48.16412,2.90544 72.19005,0.7924 24.08196,-2.11306 47.99564,-7.13153 72.0776,-11.09349 24.02593,-3.96196 48.16412,-6.8674 60.23316,-8.36412 l 15.80247,-1.45273 -3.73343,50.18481 h -12.06904 -60.23316 -72.0776 -72.19005 -72.07764 -72.18994 -72.07768 -60.23314 l -13.50499,0.19292 z"
     fill="#2278e2"
     id="path4-1"
     style="stroke-width:0.497111"
     sodipodi:nodetypes="ccccccccccccccccccccc" />
  <path
     d="m 395.85559,80.200182 13.65349,-0.39804 c 12.07343,0.15692 36.22027,0.39228 60.25481,-2.3929 24.09069,-2.8244 48.01291,-8.70857 72.10359,-9.0224 24.03453,-0.35305 48.18137,4.90348 72.2159,5.80573 24.09071,0.90223 48.01288,-2.47136 72.10362,-2.47136 24.03453,0 48.1814,3.37359 72.21592,5.02117 24.09065,1.64755 48.01292,1.49066 72.10357,0.86301 24.03451,-0.66688 48.18139,-1.84371 60.25483,-2.43213 l 15.95172,-0.58842 -0.57454,18.21671 -15.37718,-0.17191 H 830.50649 758.40292 686.187 614.08338 541.86748 469.76389 409.50908 395.85559 Z"
     fill="#0658d2"
     id="path5-3"
     style="stroke-width:0.469348"
     sodipodi:nodetypes="cccccsccscccccccccccc" />
</svg>
